<svg width="14" height="14" viewBox="0 0 14 14" fill="none" xmlns="http://www.w3.org/2000/svg">
<path d="M10.4519 8.61991C11.1108 7.72275 11.5001 6.61516 11.5001 5.41667C11.5001 2.42512 9.07496 0 6.08341 0C3.09187 0 0.666748 2.42512 0.666748 5.41667C0.666748 8.40821 3.09187 10.8333 6.08341 10.8333C7.28223 10.8333 8.39009 10.4439 9.28738 9.7846L9.28665 9.78513C9.31123 9.81846 9.3386 9.85037 9.36877 9.88054L12.5775 13.0893C12.9029 13.4147 13.4306 13.4147 13.756 13.0893C14.0814 12.7638 14.0814 12.2362 13.756 11.9107L10.5473 8.70203C10.5171 8.67186 10.4852 8.64448 10.4519 8.61991ZM10.6667 5.41667C10.6667 7.94797 8.61472 10 6.08341 10C3.55211 10 1.50008 7.94797 1.50008 5.41667C1.50008 2.88536 3.55211 0.833333 6.08341 0.833333C8.61472 0.833333 10.6667 2.88536 10.6667 5.41667Z" fill="#616161"/>
</svg>
